<svg width="16" height="17" viewBox="0 0 16 17" fill="none" xmlns="http://www.w3.org/2000/svg">
<g id="Login-Icons">
<path id="Vector" d="M8 3.34519C4.36364 3.34519 1.25818 5.60701 0 8.79974C1.25818 11.9925 4.36364 14.2543 8 14.2543C11.6364 14.2543 14.7418 11.9925 16 8.79974C14.7418 5.60701 11.6364 3.34519 8 3.34519ZM8 12.4361C5.99273 12.4361 4.36364 10.807 4.36364 8.79974C4.36364 6.79246 5.99273 5.16337 8 5.16337C10.0073 5.16337 11.6364 6.79246 11.6364 8.79974C11.6364 10.807 10.0073 12.4361 8 12.4361ZM8 6.61792C6.79273 6.61792 5.81818 7.59246 5.81818 8.79974C5.81818 10.007 6.79273 10.9816 8 10.9816C9.20727 10.9816 10.1818 10.007 10.1818 8.79974C10.1818 7.59246 9.20727 6.61792 8 6.61792Z" fill="#4D4D4D"/>
</g>
</svg>
