<svg width="20" height="21" viewBox="0 0 20 21" fill="none" xmlns="http://www.w3.org/2000/svg">
<g id="Other-Pay-Method">
<g id="Group 3019">
<path id="Vector" d="M19.869 10.4066C19.8698 9.72513 19.8118 9.04489 19.6956 8.37332H10.1998V12.2245H15.6385C15.5272 12.8396 15.2917 13.426 14.946 13.9482C14.6004 14.4704 14.1519 14.9178 13.6275 15.2633V17.7631H16.8734C18.7739 16.0229 19.869 13.4495 19.869 10.4066Z" fill="#4285F4"/>
<path id="Vector_2" d="M10.1997 20.1785C12.917 20.1785 15.2049 19.2925 16.8734 17.7648L13.6274 15.2649C12.724 15.8732 11.5605 16.2204 10.1997 16.2204C7.57334 16.2204 5.34414 14.4622 4.54699 12.0928H1.20319V14.6691C2.04126 16.3252 3.32635 17.7175 4.915 18.6903C6.50364 19.6632 8.3333 20.1785 10.1997 20.1785Z" fill="#34A853"/>
<path id="Vector_3" d="M4.54698 12.0925C4.12556 10.851 4.12556 9.50646 4.54698 8.26492V5.68866H1.20317C0.498154 7.08186 0.130981 8.61948 0.130981 10.1787C0.130981 11.7379 0.498154 13.2756 1.20317 14.6688L4.54698 12.0925Z" fill="#FBBC04"/>
<path id="Vector_4" d="M10.1997 4.13732C11.6357 4.11402 13.0232 4.65281 14.0624 5.63724L16.9363 2.78322C15.1139 1.08341 12.6997 0.150187 10.1997 0.179184C8.3333 0.179268 6.50364 0.694512 4.915 1.66739C3.32635 2.64027 2.04126 4.03249 1.20319 5.68863L4.54699 8.26489C5.34414 5.89556 7.57334 4.13732 10.1997 4.13732Z" fill="#EA4335"/>
</g>
</g>
</svg>
